<?xml version="1.0" encoding="utf-8"?>
<!-- Svg Vector Icons : http://www.onlinewebfonts.com/icon -->
<!DOCTYPE svg PUBLIC "-//W3C//DTD SVG 1.1//EN" "http://www.w3.org/Graphics/SVG/1.1/DTD/svg11.dtd">
<svg version="1.1" xmlns="http://www.w3.org/2000/svg" xmlns:xlink="http://www.w3.org/1999/xlink" x="0px" y="0px" viewBox="0 0 1000 1000" enable-background="new 0 0 1000 1000" xml:space="preserve">
<metadata> Svg Vector Icons : http://www.onlinewebfonts.com/icon </metadata>
<g><path d="M40.6,193.8h918.8c16.9,0,30.6-13.7,30.6-30.6c0-16.9-13.7-30.6-30.6-30.6H40.6c-16.9,0-30.6,13.7-30.6,30.6C10,180.1,23.7,193.8,40.6,193.8z"/><path d="M40.6,867.5h918.8c16.9,0,30.6-13.7,30.6-30.6c0-16.9-13.7-30.6-30.6-30.6H40.6c-16.9,0-30.6,13.7-30.6,30.6C10,853.8,23.7,867.5,40.6,867.5z"/><path d="M40.6,530.6h918.8c16.9,0,30.6-13.7,30.6-30.6c0-16.9-13.7-30.6-30.6-30.6H40.6C23.7,469.4,10,483.1,10,500C10,516.9,23.7,530.6,40.6,530.6z"/></g>
</svg>